<svg xmlns="http://www.w3.org/2000/svg" xmlns:xlink="http://www.w3.org/1999/xlink" viewBox="0 0 340.16 340.16"><defs><style>.cls-1{fill:none;}.cls-2{clip-path:url(#clip-path);}.cls-3{fill:#fff200;}</style><clipPath id="clip-path"><ellipse class="cls-1" cx="170.08" cy="170.08" rx="143.75" ry="142.92"/></clipPath></defs><g id="Suured_logod" data-name="Suured logod"><g id="Kollased"><g id="SUUR_LOGO_TEKSTITA" data-name="SUUR LOGO TEKSTITA"><g class="cls-2"><ellipse class="cls-3" cx="170.08" cy="170.08" rx="143.75" ry="142.92"/><path d="M194.52,247.34l-38.19-63.69,41.13-42.13,32.31-.49,3.1-10.48h19.54l10.6,4.08V107.44l-10.6,4.35h-20.6l-1.55-14.48,34.75-2V87.26l-38.18-1.59-4,15.19-7.58.06-11.51,7.92-28.34,4.38-7.49-3.49-5.39,10.78,10.29,2.14-.57,10.76,4.3,6,3.78,2.62-21,15.19L127,136.13l-9.79,1.47-7.35,23,25.46,56.83c-10.74,26.36-23.78,58.34-34.52,84.71,1.95,1,3.76,1.63,5.93,2.63,2.47,1.15,4.78,1.64,7.1,2.56L155.3,233.9,171,252.25c5.25,19.93,11.89,45.42,17.14,65.36,1.84-.21,3.25-.14,5.2-.44s3.23-.46,5-.81C197.21,295.37,195.68,268.33,194.52,247.34Z"/><polygon points="129.41 128.46 115.67 128.46 119.64 94.43 153.62 85.67 161.69 99.88 129.41 128.46"/></g></g></g></g></svg>